# xmcd CD database file
#
# Track frame offsets:
#	150
#	30352
#	57214
#	102652
#	142892
#	169557
#	185610
#	209050
#	228937
#
# Disc length: 3404 seconds
#
# Revision: 0
# Processed by: cddbd v1.5.1PL0 Copyright (c) Steve Scherf et al.
# Submitted via: cdripper 1.0.7
#
DISCID=770d4a09
DTITLE=General Music Project - General Music Project, Vol. 2
DYEAR=1998
DGENRE=Jazz
TTITLE0=Rhythm Swing
TTITLE1=It Was a Very Good Year
TTITLE2=Get Up
TTITLE3=Oh Yeah!
TTITLE4=The Mirrored Window
TTITLE5=The Summer Knows
TTITLE6=Come and Play
TTITLE7=Mizzom
TTITLE8=Midnite Garden
EXTD=YEAR: 1998
EXTT0=
EXTT1=
EXTT2=
EXTT3=
EXTT4=
EXTT5=
EXTT6=
EXTT7=
EXTT8=
PLAYORDER=
